<svg width="17" height="17" viewBox="0 0 17 17" fill="none" xmlns="http://www.w3.org/2000/svg">
<g clip-path="url(#clip0_733_4650)">
<path d="M7.4375 14.3437C7.4375 14.6371 7.19964 14.875 6.90625 14.875C6.61285 14.875 6.375 14.6371 6.375 14.3437C6.375 14.0504 6.61285 13.8125 6.90625 13.8125C7.19964 13.8125 7.4375 14.0504 7.4375 14.3437Z" stroke="#4362CE" stroke-width="1.3" stroke-linecap="round" stroke-linejoin="round"/>
<path d="M13.458 14.3437C13.458 14.6371 13.2201 14.875 12.9268 14.875C12.6334 14.875 12.3955 14.6371 12.3955 14.3437C12.3955 14.0504 12.6334 13.8125 12.9268 13.8125C13.2201 13.8125 13.458 14.0504 13.458 14.3437Z" stroke="#4362CE" stroke-width="1.3" stroke-linecap="round" stroke-linejoin="round"/>
<path d="M1.41699 2.125H1.56336C2.50162 2.125 2.97075 2.125 3.27672 2.4099C3.58269 2.69479 3.61611 3.16273 3.68296 4.0986L3.86099 6.59101C3.96161 7.99963 4.01191 8.70393 4.22536 9.2764C4.69325 10.5313 5.72528 11.4923 7.01033 11.8695C7.59656 12.0417 8.30674 12.0417 9.72695 12.0417C11.2184 12.0417 11.9641 12.0417 12.5674 11.8586C13.9257 11.4466 14.9886 10.3837 15.4006 9.02537C15.5837 8.42208 15.5837 7.68067 15.5837 6.19792C15.5837 5.70366 15.5837 5.45653 15.5227 5.25543C15.3853 4.80266 15.031 4.44835 14.5783 4.311C14.3772 4.25 14.13 4.25 13.6357 4.25H3.89616" stroke="#4362CE" stroke-width="1.3" stroke-linecap="round" stroke-linejoin="round"/>
<path d="M11.3337 7.0835V9.2085M7.79199 7.0835V9.2085" stroke="#4362CE" stroke-width="1.3" stroke-linecap="round" stroke-linejoin="round"/>
</g>
<defs>
<clipPath id="clip0_733_4650">
<rect width="17" height="17" fill="white"/>
</clipPath>
</defs>
</svg>
